<?xml version="1.0" encoding="UTF-8" standalone="no"?>
<!DOCTYPE svg PUBLIC "-//W3C//DTD SVG 1.1//EN" "http://www.w3.org/Graphics/SVG/1.1/DTD/svg11.dtd">
<svg width="100%" height="100%" viewBox="0 0 1080 1080" version="1.1" xmlns="http://www.w3.org/2000/svg" xmlns:xlink="http://www.w3.org/1999/xlink" xml:space="preserve" xmlns:serif="http://www.serif.com/" style="fill-rule:evenodd;clip-rule:evenodd;stroke-linejoin:round;stroke-miterlimit:2;">
    <rect x="0" y="0" width="1080" height="1080" style="fill:white;"/>
    <g transform="matrix(1,0,0,1,0,16)">
        <path d="M535.836,1051.58C516.627,936.521 209.614,855.65 216,740C325.057,637.195 457.2,536.4 496.8,432C532.64,337.512 478.8,180 496.8,129.6C506.486,102.478 573.514,102.478 583.2,129.6C601.2,180 547.36,337.512 583.2,432C622.8,536.4 757.689,631.171 864,740C872.512,854.056 560.28,933.691 535.836,1051.58Z" style="fill:rgb(117,183,121);"/>
    </g>
    <g id="fsharp.svg" transform="matrix(4.3875,0,0,4.3875,540,754)">
        <g transform="matrix(1,0,0,1,-64,-64)">
            <g>
                <path d="M5,63L61,7L61,35L33,63L61,91L61,119L5,63Z" style="fill:rgb(178,222,180);fill-rule:nonzero;"/>
                <path d="M41,63L61,43L61,83L41,63Z" style="fill:rgb(178,222,180);fill-rule:nonzero;"/>
                <path d="M123,63L65,7L65,35L93,63L65,91L65,119L123,63Z" style="fill:rgb(207,231,209);fill-rule:nonzero;"/>
            </g>
        </g>
    </g>
    <g transform="matrix(1,0,0,1,0,16)">
        <g transform="matrix(1,0,0,1,-19.7169,0)">
            <path d="M626.4,432C640.8,424.8 784.8,424.8 799.2,432C813.6,439.2 741.6,475.2 712.8,475.2C684,475.2 612,439.2 626.4,432Z" style="fill:rgb(117,183,121);"/>
        </g>
        <g transform="matrix(1,0,0,1,-33.9218,-136.608)">
            <path d="M626.4,432C640.8,424.8 784.8,424.8 799.2,432C813.6,439.2 741.6,475.2 712.8,475.2C684,475.2 612,439.2 626.4,432Z" style="fill:rgb(117,183,121);"/>
        </g>
        <g transform="matrix(0.693521,-0.323945,0.305568,0.654178,39.0563,129.163)">
            <path d="M626.4,432C640.8,424.8 784.8,424.8 799.2,432C813.6,439.2 741.6,475.2 712.8,475.2C684,475.2 612,439.2 626.4,432Z" style="fill:rgb(117,183,121);"/>
        </g>
        <g transform="matrix(0.521186,-0.359238,0.315288,0.457423,333.824,456.757)">
            <path d="M626.4,432C640.8,424.8 784.8,424.8 799.2,432C813.6,439.2 741.6,475.2 712.8,475.2C684,475.2 612,439.2 626.4,432Z" style="fill:rgb(117,183,121);"/>
        </g>
        <g transform="matrix(0.521186,-0.359238,0.315288,0.457423,319.619,320.149)">
            <path d="M626.4,432C640.8,424.8 784.8,424.8 799.2,432C813.6,439.2 741.6,475.2 712.8,475.2C684,475.2 612,439.2 626.4,432Z" style="fill:rgb(117,183,121);"/>
        </g>
        <g transform="matrix(0.230122,-0.589687,0.517543,0.201968,367.91,427.905)">
            <path d="M626.4,432C640.8,424.8 784.8,424.8 799.2,432C813.6,439.2 741.6,475.2 712.8,475.2C684,475.2 612,439.2 626.4,432Z" style="fill:rgb(117,183,121);"/>
        </g>
        <g transform="matrix(0.308852,-0.0103841,0.0103398,0.307534,698.49,236.039)">
            <path d="M626.4,432C640.8,424.8 784.8,424.8 799.2,432C813.6,439.2 741.6,475.2 712.8,475.2C684,475.2 612,439.2 626.4,432Z" style="fill:rgb(117,183,121);"/>
        </g>
        <g transform="matrix(0.308852,-0.0103841,0.0103398,0.307534,684.285,99.4305)">
            <path d="M626.4,432C640.8,424.8 784.8,424.8 799.2,432C813.6,439.2 741.6,475.2 712.8,475.2C684,475.2 612,439.2 626.4,432Z" style="fill:rgb(117,183,121);"/>
        </g>
        <g transform="matrix(0.275435,-0.140118,0.139519,0.274259,549.343,1.55385)">
            <path d="M626.4,432C640.8,424.8 784.8,424.8 799.2,432C813.6,439.2 741.6,475.2 712.8,475.2C684,475.2 612,439.2 626.4,432Z" style="fill:rgb(117,183,121);"/>
        </g>
    </g>
    <g transform="matrix(-1,0,0,1,1080,16)">
        <g transform="matrix(1,0,0,1,-19.7169,0)">
            <path d="M626.4,432C640.8,424.8 784.8,424.8 799.2,432C813.6,439.2 741.6,475.2 712.8,475.2C684,475.2 612,439.2 626.4,432Z" style="fill:rgb(117,183,121);"/>
        </g>
        <g transform="matrix(1,0,0,1,-33.9218,-136.608)">
            <path d="M626.4,432C640.8,424.8 784.8,424.8 799.2,432C813.6,439.2 741.6,475.2 712.8,475.2C684,475.2 612,439.2 626.4,432Z" style="fill:rgb(117,183,121);"/>
        </g>
        <g transform="matrix(0.693521,-0.323945,0.305568,0.654178,39.0563,129.163)">
            <path d="M626.4,432C640.8,424.8 784.8,424.8 799.2,432C813.6,439.2 741.6,475.2 712.8,475.2C684,475.2 612,439.2 626.4,432Z" style="fill:rgb(117,183,121);"/>
        </g>
        <g transform="matrix(0.521186,-0.359238,0.315288,0.457423,333.824,456.757)">
            <path d="M626.4,432C640.8,424.8 784.8,424.8 799.2,432C813.6,439.2 741.6,475.2 712.8,475.2C684,475.2 612,439.2 626.4,432Z" style="fill:rgb(117,183,121);"/>
        </g>
        <g transform="matrix(0.521186,-0.359238,0.315288,0.457423,319.619,320.149)">
            <path d="M626.4,432C640.8,424.8 784.8,424.8 799.2,432C813.6,439.2 741.6,475.2 712.8,475.2C684,475.2 612,439.2 626.4,432Z" style="fill:rgb(117,183,121);"/>
        </g>
        <g transform="matrix(0.230122,-0.589687,0.517543,0.201968,367.91,427.905)">
            <path d="M626.4,432C640.8,424.8 784.8,424.8 799.2,432C813.6,439.2 741.6,475.2 712.8,475.2C684,475.2 612,439.2 626.4,432Z" style="fill:rgb(117,183,121);"/>
        </g>
        <g transform="matrix(0.308852,-0.0103841,0.0103398,0.307534,698.49,236.039)">
            <path d="M626.4,432C640.8,424.8 784.8,424.8 799.2,432C813.6,439.2 741.6,475.2 712.8,475.2C684,475.2 612,439.2 626.4,432Z" style="fill:rgb(117,183,121);"/>
        </g>
        <g transform="matrix(0.308852,-0.0103841,0.0103398,0.307534,684.285,99.4305)">
            <path d="M626.4,432C640.8,424.8 784.8,424.8 799.2,432C813.6,439.2 741.6,475.2 712.8,475.2C684,475.2 612,439.2 626.4,432Z" style="fill:rgb(117,183,121);"/>
        </g>
        <g transform="matrix(0.275435,-0.140118,0.139519,0.274259,549.343,1.55385)">
            <path d="M626.4,432C640.8,424.8 784.8,424.8 799.2,432C813.6,439.2 741.6,475.2 712.8,475.2C684,475.2 612,439.2 626.4,432Z" style="fill:rgb(117,183,121);"/>
        </g>
    </g>
</svg>
